<?xml version="1.0" encoding="UTF-8"?><svg id="Layer_2" xmlns="http://www.w3.org/2000/svg" viewBox="0 0 197.31 19.34"><defs><style>.cls-1{fill:none;stroke:#5a6edc;stroke-linecap:round;stroke-linejoin:round;stroke-width:3px;}</style></defs><g id="Layer_1-2"><path id="STROKE_2e8959b0-b769-483e-8647-858273c0d61d" class="cls-1" d="M10.06,6.21c-14.84-2.16-7.48,21.91.36,5.42.48,1.15.78,4.28,1.21,5.85"/><path id="STROKE_3cb85c29-42f7-4fa2-ae86-47c0bb92670e" class="cls-1" d="M16.62,17.51c-1.5-5.44-.8-12.38,6.7-11.25"/><path id="STROKE_635675ff-0edf-44e0-b081-e2e0c46bcf75" class="cls-1" d="M27.5,6.6c-.22,2.48-.18,7.6.03,10.59"/><path id="STROKE_a13fd564-9638-4c6e-9559-f8d580697b48" class="cls-1" d="M27.41,1.57l-.1.14"/><path id="STROKE_5f8831a5-3dbd-48aa-ae03-e03eae773e27" class="cls-1" d="M40.99,6.5c-11.97-3.07-9.7,19.32.17,5.6,1.1,2.25.82,1.97,1.18,4.68"/><path id="STROKE_156d281f-7944-495b-8c5c-d7129f823278" class="cls-1" d="M46.82,16.91c-1.77-15.29,9.01-13.86,8.85.16"/><path id="STROKE_a7ab8bd4-0ceb-485d-82cc-5019e7d831ae" class="cls-1" d="M65.05,11.67c1.38-1.19,1.14-.81,2.59-2.21,1.68-1.63-1.81-3.74-4.29-3.34-4.86.82-3.9,7.9-1,10.39,2.23,1.48,4.79.27,6.97-1.29"/><path id="STROKE_b1a2c87d-876b-48f8-8b64-bcb9b7d35913" class="cls-1" d="M85.25,5.91c5.07,13.73,7.2,16.68,10.45-.14"/><path id="STROKE_a5e8a24e-35f5-46bb-9bc9-124345931848" class="cls-1" d="M107.43,6.2c-13.8-2.55-5.96,21.62.89,5.78.81,2.06.76,3.36,1.5,5.85"/><path id="STROKE_ad35090e-0576-45a8-b9f8-b248ecd14d98" class="cls-1" d="M114.51,17.49c-.53-5.83-1.08-12.67,7.1-10.99"/><path id="STROKE_e75be40e-9117-485a-b22f-99957cef5315" class="cls-1" d="M126.48,1.65c.1,4.54,1.02,10.66,1.29,15.57"/><path id="STROKE_db44b4c3-97fb-4ee5-a4d6-0629cc893071" class="cls-1" d="M127.79,6.29l.16-.17c1.31-.31,3.74-.27,5.08-.38"/><path id="STROKE_2b53fb6c-4773-4c0b-8e9c-29a1faf6307d" class="cls-1" d="M143.48,6.57c-6.03-1.75-8.25,4.99-6.24,9.32,1.9,2.4,5.75.81,6.59-1.88.45-.68.71-2.3,1.15-2.39.43,1.8,1.35,2.92,1.83,5.66"/><path id="STROKE_61f8c95c-a905-49b0-9821-9375dd07ddd3" class="cls-1" d="M151.38,17.19c-1.16-14.26,8.74-14.02,9.3-.23"/><path id="STROKE_a36cc1ee-4efd-472e-a4e6-9e64fd0008ee" class="cls-1" d="M166,6.48c.08,3.36.16,7.46.13,10.81"/><path id="STROKE_d7ba44b1-55a5-4083-8b11-759bfb56b645" class="cls-1" d="M179.72,6.31c-10.83-4.09-11.12,15.98-1.83,9.36.94-.99,1.51-2.8,2.18-3.93,1.21,1.4.89,3.47,1.39,5.75"/><path id="STROKE_372f8550-d10c-4235-8c68-d75a60e99253" class="cls-1" d="M186.02,17.37c-.09-2.94-.53-7.07.62-9.86,6.09-5.39,9.99,4.48,9.02,9.67"/><path id="STROKE_a13fd564-9638-4c6e-9559-f8d580697b48-2" class="cls-1" d="M166.04,1.5l-.1.14"/></g></svg>